<?xml version="1.0" encoding="UTF-8"?>
<svg id="Layer_1" data-name="Layer 1" xmlns="http://www.w3.org/2000/svg" viewBox="0 0 1404.84 1366.52">
  <defs>
    <style>
      .cls-1 {
        fill: #bb2027;
      }

      .cls-2 {
        fill: #010101;
      }
    </style>
  </defs>
  <polygon class="cls-1" points="697.21 53.59 561.18 189.62 656.88 285.32 697.21 244.97 1135.5 683.26 1095.15 723.59 1056.81 761.96 933.52 885.24 697.21 1121.53 651.71 1076.04 556.01 1171.74 648.92 1264.64 697.21 1312.93 1326.88 683.26 697.21 53.59"/>
  <polygon class="cls-2" points="697.21 967.52 979.78 684.95 981.47 683.26 697.21 398.97 695.52 400.67 412.95 683.26 508.62 778.94 697.21 590.38 790.09 683.26 601.51 871.82 524.5 948.82 431.62 855.97 335.92 760.26 258.92 683.26 618.51 323.66 522.81 227.98 67.54 683.26 240.24 855.97 335.92 951.64 428.8 1044.53 524.5 1140.23 620.2 1044.53 697.21 967.52"/>
</svg>