<?xml version="1.0" encoding="utf-8"?>
<!-- Generator: $$$/GeneralStr/196=Adobe Illustrator 27.6.0, SVG Export Plug-In . SVG Version: 6.00 Build 0)  -->
<svg version="1.1" id="Layer_1" xmlns="http://www.w3.org/2000/svg" xmlns:xlink="http://www.w3.org/1999/xlink" x="0px" y="0px"
	 viewBox="0 0 880.19 283.46" style="enable-background:new 0 0 880.19 283.46;" xml:space="preserve">
<style type="text/css">
	.st0{fill:#BB2027;}
	.st1{fill:#010101;}
</style>
<g>
	<polygon class="st0" points="133.74,31.39 109.9,55.23 126.67,72 133.74,64.93 210.54,141.73 203.47,148.8 196.75,155.52 
		175.15,177.13 133.74,218.53 125.76,210.56 108.99,227.33 125.27,243.61 133.74,252.07 244.08,141.73 	"/>
	<polygon class="st1" points="133.74,191.55 183.25,142.03 183.55,141.73 133.74,91.92 133.44,92.21 83.92,141.73 100.69,158.5 
		133.74,125.46 150.01,141.73 116.97,174.78 103.47,188.27 87.2,172 70.43,155.23 56.93,141.73 119.95,78.72 103.18,61.95 
		23.39,141.73 53.66,172 70.43,188.76 86.7,205.04 103.47,221.81 120.24,205.04 	"/>
</g>
<g>
	<path d="M268.66,120.13h14.56v20.99c0,10.59-5.29,16.64-15.5,16.64s-15.5-6.05-15.5-16.64v-34.41c0-10.59,5.29-16.64,15.5-16.64
		s15.5,6.05,15.5,16.64v6.43h-9.83v-7.09c0-4.73-2.08-6.52-5.39-6.52c-3.31,0-5.39,1.8-5.39,6.52v35.73c0,4.73,2.08,6.43,5.39,6.43
		c3.31,0,5.39-1.7,5.39-6.43v-12.19h-4.73V120.13z"/>
	<path d="M304.58,90.83h16.45c10.4,0,15.5,5.77,15.5,16.35v33.46c0,10.59-5.1,16.35-15.5,16.35h-16.45V90.83z M314.98,100.28v47.26
		h5.86c3.31,0,5.29-1.7,5.29-6.43v-34.41c0-4.73-1.98-6.43-5.29-6.43H314.98z"/>
	<path d="M387.96,132.33v8.79c0,10.59-5.29,16.64-15.5,16.64s-15.5-6.05-15.5-16.64v-34.41c0-10.59,5.29-16.64,15.5-16.64
		s15.5,6.05,15.5,16.64v6.43h-9.83v-7.09c0-4.73-2.08-6.52-5.39-6.52s-5.39,1.8-5.39,6.52v35.73c0,4.73,2.08,6.43,5.39,6.43
		s5.39-1.7,5.39-6.43v-9.45H387.96z"/>
	<path d="M393.44,106.71c0-10.59,5.58-16.64,15.79-16.64s15.79,6.05,15.79,16.64v34.41c0,10.59-5.58,16.64-15.79,16.64
		s-15.79-6.05-15.79-16.64V106.71z M403.84,141.78c0,4.73,2.08,6.52,5.39,6.52s5.39-1.8,5.39-6.52v-35.73
		c0-4.73-2.08-6.52-5.39-6.52s-5.39,1.8-5.39,6.52V141.78z"/>
	<path d="M440.99,109.07V157h-9.36V90.83h13.04l10.68,39.61V90.83h9.26V157h-10.68L440.99,109.07z"/>
	<path d="M486.08,90.07c10.11,0,15.31,6.05,15.31,16.64v2.08h-9.83v-2.74c0-4.73-1.89-6.52-5.2-6.52s-5.2,1.8-5.2,6.52
		c0,13.61,20.32,16.17,20.32,35.07c0,10.59-5.29,16.64-15.5,16.64s-15.5-6.05-15.5-16.64v-4.06h9.83v4.73
		c0,4.73,2.08,6.43,5.39,6.43s5.39-1.7,5.39-6.43c0-13.61-20.32-16.17-20.32-35.07C470.77,96.12,475.97,90.07,486.08,90.07z"/>
	<path d="M504.42,90.83h32.14v9.45h-10.87V157h-10.4v-56.72h-10.87V90.83z"/>
	<path d="M562.84,157c-0.57-1.7-0.95-2.74-0.95-8.13v-10.4c0-6.14-2.08-8.41-6.81-8.41h-3.59V157h-10.4V90.83h15.69
		c10.78,0,15.41,5.01,15.41,15.22v5.2c0,6.81-2.17,11.25-6.81,13.42c5.2,2.17,6.9,7.18,6.9,14.08v10.21c0,3.21,0.09,5.58,1.13,8.04
		H562.84z M551.5,100.28v20.32h4.06c3.88,0,6.24-1.7,6.24-7v-6.52c0-4.73-1.61-6.81-5.29-6.81H551.5z"/>
	<path d="M589.03,90.83v51.04c0,4.73,2.08,6.43,5.39,6.43s5.39-1.7,5.39-6.43V90.83h9.83v50.38c0,10.59-5.29,16.64-15.5,16.64
		s-15.5-6.05-15.5-16.64V90.83H589.03z"/>
	<path d="M646.88,132.33v8.79c0,10.59-5.29,16.64-15.5,16.64s-15.5-6.05-15.5-16.64v-34.41c0-10.59,5.29-16.64,15.5-16.64
		s15.5,6.05,15.5,16.64v6.43h-9.83v-7.09c0-4.73-2.08-6.52-5.39-6.52s-5.39,1.8-5.39,6.52v35.73c0,4.73,2.08,6.43,5.39,6.43
		s5.39-1.7,5.39-6.43v-9.45H646.88z"/>
	<path d="M650.19,90.83h32.14v9.45h-10.87V157h-10.4v-56.72h-10.87V90.83z"/>
	<path d="M686.87,90.83h10.4V157h-10.4V90.83z"/>
	<path d="M703.98,106.71c0-10.59,5.58-16.64,15.79-16.64s15.79,6.05,15.79,16.64v34.41c0,10.59-5.58,16.64-15.79,16.64
		s-15.79-6.05-15.79-16.64V106.71z M714.38,141.78c0,4.73,2.08,6.52,5.39,6.52s5.39-1.8,5.39-6.52v-35.73
		c0-4.73-2.08-6.52-5.39-6.52s-5.39,1.8-5.39,6.52V141.78z"/>
	<path d="M751.53,109.07V157h-9.36V90.83h13.04l10.68,39.61V90.83h9.26V157h-10.68L751.53,109.07z"/>
	<path d="M796.62,90.07c10.11,0,15.31,6.05,15.31,16.64v2.08h-9.83v-2.74c0-4.73-1.89-6.52-5.2-6.52s-5.2,1.8-5.2,6.52
		c0,13.61,20.32,16.17,20.32,35.07c0,10.59-5.29,16.64-15.5,16.64s-15.5-6.05-15.5-16.64v-4.06h9.83v4.73
		c0,4.73,2.08,6.43,5.39,6.43s5.39-1.7,5.39-6.43c0-13.61-20.32-16.17-20.32-35.07C781.31,96.12,786.51,90.07,796.62,90.07z"/>
</g>
<g>
	<path d="M265.06,183.78h10.1v4.93h-10.1v10.11h12.71v4.93H257.7v-34.51h20.07v4.93h-12.71V183.78z"/>
	<path d="M289.01,178.75h-0.13v25h-6.62v-34.51h9.23l7.43,20.66h0.13v-20.66h6.56v34.51h-7.56L289.01,178.75z"/>
	<path d="M321.93,184.52h10.3v10.95c0,5.52-3.75,8.68-10.97,8.68c-7.23,0-10.97-3.16-10.97-8.68v-17.95c0-5.52,3.75-8.68,10.97-8.68
		c7.23,0,10.97,3.16,10.97,8.68v3.35h-6.96v-3.7c0-2.46-1.47-3.4-3.81-3.4s-3.81,0.94-3.81,3.4v18.64c0,2.46,1.47,3.35,3.81,3.35
		s3.81-0.89,3.81-3.35v-6.36h-3.34V184.52z"/>
	<path d="M336.98,169.24h7.36v34.51h-7.36V169.24z"/>
	<path d="M356.38,178.75h-0.13v25h-6.62v-34.51h9.23l7.43,20.66h0.13v-20.66h6.56v34.51h-7.56L356.38,178.75z"/>
	<path d="M385.62,183.78h10.1v4.93h-10.1v10.11h12.71v4.93h-20.07v-34.51h20.07v4.93h-12.71V183.78z"/>
	<path d="M410.24,183.78h10.1v4.93h-10.1v10.11h12.71v4.93h-20.07v-34.51h20.07v4.93h-12.71V183.78z"/>
	<path d="M442.89,203.75c-0.4-0.89-0.67-1.43-0.67-4.24v-5.42c0-3.2-1.47-4.39-4.82-4.39h-2.54v14.05h-7.36v-34.51h11.11
		c7.63,0,10.91,2.61,10.91,7.94v2.71c0,3.55-1.54,5.82-4.82,6.95v0.1c3.68,1.13,4.88,3.7,4.88,7.3v5.32c0,1.68,0.07,2.91,0.8,4.19
		H442.89z M434.86,174.17v10.6h2.88c2.74,0,4.42-0.89,4.42-3.65v-3.4c0-2.46-1.14-3.55-3.75-3.55H434.86z"/>
	<path d="M464.3,168.84c7.16,0,10.84,3.16,10.84,8.68v1.08h-6.96v-1.43c0-2.46-1.34-3.4-3.68-3.4c-2.34,0-3.68,0.94-3.68,3.4
		c0,2.51,1.47,4.39,6.29,7.49c6.16,3.99,8.1,6.85,8.1,10.8c0,5.52-3.75,8.68-10.97,8.68c-7.23,0-10.97-3.16-10.97-8.68v-2.12h6.96
		v2.46c0,2.46,1.47,3.35,3.81,3.35s3.81-0.89,3.81-3.35c0-2.51-1.47-4.39-6.29-7.49c-6.16-3.99-8.1-6.85-8.1-10.8
		C453.46,172,457.14,168.84,464.3,168.84z"/>
	<path d="M494.94,185.55v-0.1c-3.48-1.08-5.08-3.35-5.08-7.05v-0.64c0-5.52,3.61-8.53,10.97-8.53h8.43v4.93h-8.3
		c-2.34,0-3.75,0.89-3.75,3.35v2.12c0,2.76,1.67,3.65,4.42,3.65h3.21v-3.85h7.36v3.85h1.94v4.93h-1.94v11.34
		c0,1.68,0.07,2.91,0.8,4.19h-7.49c-0.33-0.69-0.54-1.18-0.67-2.71h-0.13c-1.27,2.02-3.41,3.11-6.69,3.11
		c-5.42,0-8.16-2.81-8.16-7.89v-3.5C489.86,189.25,491.33,186.74,494.94,185.55z M501.03,199.21c2.21,0,3.68-0.84,3.81-3.01v-7.99
		h-2.81c-3.35,0-4.82,1.18-4.82,4.39v3.2C497.22,198.27,498.69,199.21,501.03,199.21z"/>
	<path d="M549.2,190.88v4.58c0,5.52-3.75,8.68-10.97,8.68c-7.23,0-10.97-3.16-10.97-8.68v-17.95c0-5.52,3.75-8.68,10.97-8.68
		c7.23,0,10.97,3.16,10.97,8.68v3.35h-6.96v-3.7c0-2.46-1.47-3.4-3.81-3.4s-3.81,0.94-3.81,3.4v18.64c0,2.46,1.47,3.35,3.81,3.35
		s3.81-0.89,3.81-3.35v-4.93H549.2z"/>
	<path d="M553.08,177.52c0-5.52,3.95-8.68,11.17-8.68s11.17,3.16,11.17,8.68v17.95c0,5.52-3.95,8.68-11.17,8.68
		s-11.17-3.16-11.17-8.68V177.52z M560.44,195.81c0,2.46,1.47,3.4,3.81,3.4s3.81-0.94,3.81-3.4v-18.64c0-2.46-1.47-3.4-3.81-3.4
		s-3.81,0.94-3.81,3.4V195.81z"/>
	<path d="M586.87,178.75h-0.13v25h-6.62v-34.51h9.23l7.43,20.66h0.13v-20.66h6.56v34.51h-7.56L586.87,178.75z"/>
	<path d="M606.6,169.24h22.75v4.93h-7.69v29.58h-7.36v-29.58h-7.69V169.24z"/>
	<path d="M647.95,203.75c-0.4-0.89-0.67-1.43-0.67-4.24v-5.42c0-3.2-1.47-4.39-4.82-4.39h-2.54v14.05h-7.36v-34.51h11.11
		c7.63,0,10.91,2.61,10.91,7.94v2.71c0,3.55-1.54,5.82-4.82,6.95v0.1c3.68,1.13,4.88,3.7,4.88,7.3v5.32c0,1.68,0.07,2.91,0.8,4.19
		H647.95z M639.92,174.17v10.6h2.88c2.74,0,4.42-0.89,4.42-3.65v-3.4c0-2.46-1.14-3.55-3.75-3.55H639.92z"/>
	<path d="M683.28,203.75h-7.43l-1.27-6.26h-9.03l-1.27,6.26h-6.76l7.49-34.51h10.77L683.28,203.75z M666.48,192.8h7.09l-3.48-17.45
		h-0.13L666.48,192.8z"/>
	<path d="M707.96,190.88v4.58c0,5.52-3.75,8.68-10.97,8.68c-7.23,0-10.97-3.16-10.97-8.68v-17.95c0-5.52,3.75-8.68,10.97-8.68
		c7.23,0,10.97,3.16,10.97,8.68v3.35H701v-3.7c0-2.46-1.47-3.4-3.81-3.4s-3.81,0.94-3.81,3.4v18.64c0,2.46,1.47,3.35,3.81,3.35
		s3.81-0.89,3.81-3.35v-4.93H707.96z"/>
	<path d="M710.3,169.24h22.75v4.93h-7.69v29.58H718v-29.58h-7.69V169.24z"/>
	<path d="M735.66,177.52c0-5.52,3.95-8.68,11.17-8.68s11.17,3.16,11.17,8.68v17.95c0,5.52-3.95,8.68-11.17,8.68
		s-11.17-3.16-11.17-8.68V177.52z M743.02,195.81c0,2.46,1.47,3.4,3.81,3.4s3.81-0.94,3.81-3.4v-18.64c0-2.46-1.47-3.4-3.81-3.4
		s-3.81,0.94-3.81,3.4V195.81z"/>
	<path d="M778.15,203.75c-0.4-0.89-0.67-1.43-0.67-4.24v-5.42c0-3.2-1.47-4.39-4.82-4.39h-2.54v14.05h-7.36v-34.51h11.11
		c7.63,0,10.91,2.61,10.91,7.94v2.71c0,3.55-1.54,5.82-4.82,6.95v0.1c3.68,1.13,4.88,3.7,4.88,7.3v5.32c0,1.68,0.07,2.91,0.8,4.19
		H778.15z M770.12,174.17v10.6h2.88c2.74,0,4.42-0.89,4.42-3.65v-3.4c0-2.46-1.14-3.55-3.75-3.55H770.12z"/>
	<path d="M799.55,168.84c7.16,0,10.84,3.16,10.84,8.68v1.08h-6.96v-1.43c0-2.46-1.34-3.4-3.68-3.4c-2.34,0-3.68,0.94-3.68,3.4
		c0,2.51,1.47,4.39,6.29,7.49c6.16,3.99,8.1,6.85,8.1,10.8c0,5.52-3.75,8.68-10.97,8.68c-7.23,0-10.97-3.16-10.97-8.68v-2.12h6.96
		v2.46c0,2.46,1.47,3.35,3.81,3.35s3.81-0.89,3.81-3.35c0-2.51-1.47-4.39-6.29-7.49c-6.16-3.99-8.1-6.85-8.1-10.8
		C788.71,172,792.4,168.84,799.55,168.84z"/>
</g>
</svg>
