<?xml version="1.0" encoding="UTF-8"?>
<svg id="Layer_1" data-name="Layer 1" xmlns="http://www.w3.org/2000/svg" viewBox="0 0 1404.84 172.8">
  <defs>
    <style>
      .cls-1 {
        fill: #640d0d;
      }

      .cls-2 {
        fill: #bb2027;
      }

      .cls-3 {
        fill: #010101;
      }
    </style>
  </defs>
  <g>
    <polygon class="cls-2" points="148.47 5.13 130.91 22.69 143.26 35.04 148.47 29.83 205.04 86.4 199.83 91.6 194.88 96.56 178.97 112.47 148.47 142.96 142.6 137.09 130.25 149.44 142.24 161.44 148.47 167.67 229.74 86.4 148.47 5.13"/>
    <polygon class="cls-3" points="148.47 123.09 184.94 86.62 185.16 86.4 148.47 49.71 148.25 49.93 111.78 86.4 124.13 98.75 148.47 74.41 160.46 86.4 136.12 110.74 126.18 120.67 114.19 108.69 101.84 96.34 91.9 86.4 138.31 39.99 125.96 27.64 67.2 86.4 89.49 108.69 101.84 121.04 113.83 133.03 126.18 145.38 138.53 133.03 148.47 123.09"/>
  </g>
  <g>
    <path class="cls-1" d="m425.33,74.54c-4.18,1.42-12.09,3.38-20,3.38-10.94,0-18.85-2.76-24.36-8.09-5.51-5.16-8.54-12.98-8.45-21.78.09-19.92,14.58-31.3,34.23-31.3,7.74,0,13.69,1.51,16.63,2.93l-2.84,10.85c-3.29-1.42-7.38-2.58-13.96-2.58-11.29,0-19.83,6.4-19.83,19.38s7.74,19.65,18.85,19.65c3.11,0,5.6-.36,6.67-.89v-12.54h-9.25v-10.58h22.32v31.56Z"/>
    <path class="cls-1" d="m434.49,70.09c0-4.8,3.29-8.27,8-8.27s7.91,3.38,7.91,8.27-3.2,8.18-8,8.18-7.91-3.47-7.91-8.18Z"/>
    <path class="cls-1" d="m459.02,18.17c4.98-.8,11.47-1.25,18.32-1.25,11.38,0,18.76,2.04,24.54,6.4,6.22,4.62,10.14,12,10.14,22.58,0,11.47-4.18,19.38-9.96,24.27-6.31,5.25-15.92,7.74-27.65,7.74-7.02,0-12-.44-15.38-.89V18.17Zm13.6,48.9c1.16.27,3.02.27,4.71.27,12.27.09,20.27-6.67,20.27-20.98.09-12.45-7.2-19.03-18.85-19.03-3.02,0-4.98.27-6.13.53v39.21Z"/>
    <path class="cls-1" d="m515.92,70.09c0-4.8,3.29-8.27,8-8.27s7.91,3.38,7.91,8.27-3.2,8.18-8,8.18-7.91-3.47-7.91-8.18Z"/>
    <path class="cls-1" d="m602.43,75.6c-2.49,1.25-8.09,2.58-15.38,2.58-20.72,0-31.39-12.89-31.39-29.96,0-20.45,14.58-31.83,32.72-31.83,7.02,0,12.36,1.42,14.76,2.67l-2.76,10.76c-2.76-1.16-6.58-2.22-11.38-2.22-10.76,0-19.12,6.49-19.12,19.83,0,12,7.11,19.56,19.21,19.56,4.09,0,8.62-.89,11.29-1.96l2.04,10.58Z"/>
    <path class="cls-1" d="m663.51,46.71c0,19.65-11.91,31.56-29.43,31.56s-28.19-13.43-28.19-30.5c0-17.96,11.47-31.39,29.16-31.39s28.45,13.78,28.45,30.32Zm-43.3.8c0,11.74,5.51,20.01,14.58,20.01s14.4-8.71,14.4-20.36c0-10.76-5.16-20.01-14.49-20.01s-14.49,8.71-14.49,20.36Z"/>
    <path class="cls-1" d="m672.4,77.29V17.37h15.83l12.45,21.96c3.56,6.31,7.11,13.78,9.78,20.54h.27c-.89-7.91-1.16-16-1.16-24.98v-17.52h12.45v59.93h-14.23l-12.8-23.12c-3.56-6.4-7.47-14.14-10.4-21.16l-.27.09c.36,7.91.53,16.36.53,26.14v18.05h-12.45Z"/>
    <path class="cls-1" d="m734.19,63.33c3.65,1.87,9.25,3.73,15.03,3.73,6.22,0,9.51-2.58,9.51-6.49s-2.84-5.87-10.05-8.45c-9.96-3.47-16.45-8.98-16.45-17.69,0-10.23,8.54-18.05,22.67-18.05,6.76,0,11.74,1.42,15.29,3.02l-3.02,10.94c-2.4-1.16-6.67-2.84-12.54-2.84s-8.71,2.67-8.71,5.78c0,3.82,3.38,5.51,11.11,8.45,10.58,3.91,15.56,9.42,15.56,17.87,0,10.05-7.74,18.58-24.18,18.58-6.85,0-13.6-1.78-16.98-3.65l2.76-11.2Z"/>
    <path class="cls-1" d="m793.32,28.75h-16.09v-11.38h46.06v11.38h-16.36v48.55h-13.6V28.75Z"/>
    <path class="cls-1" d="m830.48,18.17c4.36-.71,10.85-1.25,18.05-1.25,8.89,0,15.12,1.33,19.38,4.71,3.56,2.85,5.51,7.02,5.51,12.54,0,7.65-5.42,12.89-10.58,14.76v.27c4.18,1.69,6.49,5.69,8,11.2,1.87,6.76,3.73,14.58,4.89,16.89h-13.87c-.98-1.69-2.4-6.58-4.18-13.96-1.6-7.47-4.18-9.51-9.69-9.6h-4.09v23.56h-13.43V18.17Zm13.43,25.78h5.33c6.76,0,10.76-3.38,10.76-8.62,0-5.51-3.73-8.27-9.96-8.36-3.29,0-5.16.27-6.13.44v16.54Z"/>
    <path class="cls-1" d="m896.27,17.37v34.5c0,10.31,3.91,15.56,10.85,15.56s11.03-4.98,11.03-15.56V17.37h13.51v33.61c0,18.49-9.34,27.3-24.98,27.3s-24.01-8.36-24.01-27.47V17.37h13.6Z"/>
    <path class="cls-1" d="m987.4,75.6c-2.49,1.25-8.09,2.58-15.38,2.58-20.72,0-31.39-12.89-31.39-29.96,0-20.45,14.58-31.83,32.72-31.83,7.02,0,12.36,1.42,14.76,2.67l-2.76,10.76c-2.76-1.16-6.58-2.22-11.38-2.22-10.76,0-19.12,6.49-19.12,19.83,0,12,7.11,19.56,19.21,19.56,4.09,0,8.62-.89,11.29-1.96l2.04,10.58Z"/>
    <path class="cls-1" d="m1009.09,28.75h-16.09v-11.38h46.06v11.38h-16.36v48.55h-13.6V28.75Z"/>
    <path class="cls-1" d="m1059.86,17.37v59.93h-13.6V17.37h13.6Z"/>
    <path class="cls-1" d="m1126.45,46.71c0,19.65-11.91,31.56-29.43,31.56s-28.19-13.43-28.19-30.5c0-17.96,11.47-31.39,29.16-31.39s28.45,13.78,28.45,30.32Zm-43.3.8c0,11.74,5.51,20.01,14.58,20.01s14.4-8.71,14.4-20.36c0-10.76-5.16-20.01-14.49-20.01s-14.49,8.71-14.49,20.36Z"/>
    <path class="cls-1" d="m1135.34,77.29V17.37h15.83l12.45,21.96c3.56,6.31,7.11,13.78,9.78,20.54h.27c-.89-7.91-1.16-16-1.16-24.98v-17.52h12.45v59.93h-14.23l-12.8-23.12c-3.56-6.4-7.47-14.14-10.4-21.16l-.27.09c.36,7.91.53,16.36.53,26.14v18.05h-12.45Z"/>
    <path class="cls-1" d="m1197.13,63.33c3.65,1.87,9.25,3.73,15.03,3.73,6.22,0,9.51-2.58,9.51-6.49s-2.84-5.87-10.05-8.45c-9.96-3.47-16.45-8.98-16.45-17.69,0-10.23,8.54-18.05,22.67-18.05,6.76,0,11.74,1.42,15.29,3.02l-3.02,10.94c-2.4-1.16-6.67-2.84-12.54-2.84s-8.71,2.67-8.71,5.78c0,3.82,3.38,5.51,11.11,8.45,10.58,3.91,15.56,9.42,15.56,17.87,0,10.05-7.74,18.58-24.18,18.58-6.85,0-13.6-1.78-16.98-3.65l2.76-11.2Z"/>
    <path class="cls-1" d="m281.39,135.43h-22.05v14.23h24.63v11.11h-38.23v-59.93h36.99v11.11h-23.38v12.45h22.05v11.03Z"/>
    <path class="cls-1" d="m293.21,160.77v-59.93h15.83l12.45,21.96c3.56,6.31,7.11,13.78,9.78,20.54h.27c-.89-7.91-1.16-16-1.16-24.98v-17.52h12.45v59.93h-14.23l-12.8-23.12c-3.56-6.4-7.47-14.14-10.4-21.16l-.27.09c.36,7.91.53,16.36.53,26.14v18.05h-12.45Z"/>
    <path class="cls-1" d="m404.62,158.01c-4.18,1.42-12.09,3.38-20,3.38-10.94,0-18.85-2.76-24.36-8.09-5.51-5.16-8.54-12.98-8.45-21.78.09-19.92,14.58-31.3,34.23-31.3,7.74,0,13.69,1.51,16.63,2.93l-2.84,10.85c-3.29-1.42-7.38-2.58-13.96-2.58-11.29,0-19.83,6.4-19.83,19.38s7.74,19.65,18.85,19.65c3.11,0,5.6-.36,6.67-.89v-12.54h-9.25v-10.58h22.32v31.56Z"/>
    <path class="cls-1" d="m428.8,100.84v59.93h-13.6v-59.93h13.6Z"/>
    <path class="cls-1" d="m440.53,160.77v-59.93h15.83l12.45,21.96c3.56,6.31,7.11,13.78,9.78,20.54h.27c-.89-7.91-1.16-16-1.16-24.98v-17.52h12.45v59.93h-14.23l-12.8-23.12c-3.56-6.4-7.47-14.14-10.4-21.16l-.27.09c.36,7.91.53,16.36.53,26.14v18.05h-12.45Z"/>
    <path class="cls-1" d="m537.53,135.43h-22.05v14.23h24.63v11.11h-38.23v-59.93h36.99v11.11h-23.38v12.45h22.05v11.03Z"/>
    <path class="cls-1" d="m585.01,135.43h-22.05v14.23h24.63v11.11h-38.23v-59.93h36.99v11.11h-23.38v12.45h22.05v11.03Z"/>
    <path class="cls-1" d="m596.83,101.64c4.36-.71,10.85-1.25,18.05-1.25,8.89,0,15.12,1.33,19.38,4.71,3.56,2.84,5.51,7.02,5.51,12.54,0,7.65-5.42,12.89-10.58,14.76v.27c4.18,1.69,6.49,5.69,8,11.2,1.87,6.76,3.73,14.58,4.89,16.89h-13.87c-.98-1.69-2.4-6.58-4.18-13.96-1.6-7.47-4.18-9.51-9.69-9.6h-4.09v23.56h-13.43v-59.13Zm13.43,25.78h5.33c6.76,0,10.76-3.38,10.76-8.62,0-5.51-3.73-8.27-9.96-8.36-3.29,0-5.16.27-6.13.45v16.54Z"/>
    <path class="cls-1" d="m650,146.81c3.65,1.87,9.25,3.73,15.03,3.73,6.22,0,9.51-2.58,9.51-6.49s-2.84-5.87-10.05-8.45c-9.96-3.47-16.45-8.98-16.45-17.69,0-10.22,8.54-18.05,22.67-18.05,6.76,0,11.74,1.42,15.29,3.02l-3.02,10.94c-2.4-1.16-6.67-2.84-12.54-2.84s-8.71,2.67-8.71,5.78c0,3.82,3.38,5.51,11.11,8.45,10.58,3.91,15.56,9.42,15.56,17.87,0,10.05-7.74,18.58-24.18,18.58-6.85,0-13.6-1.78-16.98-3.64l2.76-11.2Z"/>
    <path class="cls-1" d="m753.67,160.77c-1.24-1.33-2.49-2.67-3.91-4.27-3.91,3.02-9.34,5.25-16.45,5.25-14.49,0-20.89-8.62-20.89-16.98,0-7.91,4.54-13.6,11.38-17.16v-.36c-2.58-2.84-4.53-7.29-4.53-11.56,0-7.56,5.96-15.83,17.96-15.83,9.25,0,16.27,5.42,16.27,14.05,0,6.05-3.56,11.2-11.83,15.38l-.09.36c3.47,3.82,7.11,8.18,10.05,11.2,2.4-3.73,4.27-9.25,5.07-14.58h12.09c-1.6,9.07-4.62,16.8-9.96,22.76,3.38,3.82,6.85,7.74,10.58,11.74h-15.74Zm-10.22-11.83c-3.73-3.73-8.62-9.16-13.51-14.67-2.49,1.78-4.71,4.36-4.71,8.27,0,5.07,3.82,9.42,9.96,9.42,3.56,0,6.49-1.33,8.27-3.02Zm-12.09-34.5c0,3.02,1.42,5.69,4.09,8.62,4.36-3.02,6.58-5.33,6.58-8.8,0-2.84-1.69-5.96-5.25-5.96s-5.42,3.02-5.42,6.14Z"/>
    <path class="cls-1" d="m837.77,159.08c-2.49,1.25-8.09,2.58-15.38,2.58-20.72,0-31.39-12.89-31.39-29.96,0-20.45,14.58-31.83,32.72-31.83,7.02,0,12.36,1.42,14.76,2.67l-2.76,10.76c-2.76-1.16-6.58-2.22-11.38-2.22-10.76,0-19.12,6.49-19.12,19.83,0,12,7.11,19.56,19.21,19.56,4.09,0,8.62-.89,11.29-1.96l2.04,10.58Z"/>
    <path class="cls-1" d="m898.85,130.18c0,19.65-11.91,31.56-29.43,31.56s-28.18-13.43-28.18-30.5c0-17.96,11.47-31.39,29.16-31.39s28.45,13.78,28.45,30.32Zm-43.3.8c0,11.74,5.51,20.01,14.58,20.01s14.4-8.71,14.4-20.36c0-10.76-5.16-20-14.49-20s-14.49,8.71-14.49,20.36Z"/>
    <path class="cls-1" d="m907.74,160.77v-59.93h15.83l12.45,21.96c3.56,6.31,7.11,13.78,9.78,20.54h.27c-.89-7.91-1.16-16-1.16-24.98v-17.52h12.45v59.93h-14.23l-12.8-23.12c-3.56-6.4-7.47-14.14-10.4-21.16l-.27.09c.36,7.91.53,16.36.53,26.14v18.05h-12.45Z"/>
    <path class="cls-1" d="m980.64,112.22h-16.09v-11.38h46.06v11.38h-16.36v48.55h-13.6v-48.55Z"/>
    <path class="cls-1" d="m1017.81,101.64c4.36-.71,10.85-1.25,18.05-1.25,8.89,0,15.12,1.33,19.38,4.71,3.56,2.84,5.51,7.02,5.51,12.54,0,7.65-5.42,12.89-10.58,14.76v.27c4.18,1.69,6.49,5.69,8,11.2,1.87,6.76,3.73,14.58,4.89,16.89h-13.87c-.98-1.69-2.4-6.58-4.18-13.96-1.6-7.47-4.18-9.51-9.69-9.6h-4.09v23.56h-13.43v-59.13Zm13.43,25.78h5.33c6.76,0,10.76-3.38,10.76-8.62,0-5.51-3.73-8.27-9.96-8.36-3.29,0-5.16.27-6.13.45v16.54Z"/>
    <path class="cls-1" d="m1085.29,145.38l-4.27,15.38h-14.05l18.32-59.93h17.78l18.58,59.93h-14.58l-4.62-15.38h-17.16Zm15.2-10.14l-3.73-12.71c-1.07-3.56-2.13-8-3.02-11.56h-.18c-.89,3.56-1.78,8.09-2.76,11.56l-3.56,12.71h13.25Z"/>
    <path class="cls-1" d="m1171.44,159.08c-2.49,1.25-8.09,2.58-15.38,2.58-20.72,0-31.39-12.89-31.39-29.96,0-20.45,14.58-31.83,32.72-31.83,7.02,0,12.36,1.42,14.76,2.67l-2.76,10.76c-2.76-1.16-6.58-2.22-11.38-2.22-10.76,0-19.12,6.49-19.12,19.83,0,12,7.11,19.56,19.21,19.56,4.09,0,8.62-.89,11.29-1.96l2.04,10.58Z"/>
    <path class="cls-1" d="m1193.13,112.22h-16.09v-11.38h46.06v11.38h-16.36v48.55h-13.6v-48.55Z"/>
    <path class="cls-1" d="m1282.58,130.18c0,19.65-11.91,31.56-29.43,31.56s-28.19-13.43-28.19-30.5c0-17.96,11.47-31.39,29.16-31.39s28.45,13.78,28.45,30.32Zm-43.3.8c0,11.74,5.51,20.01,14.58,20.01s14.4-8.71,14.4-20.36c0-10.76-5.16-20-14.49-20s-14.49,8.71-14.49,20.36Z"/>
    <path class="cls-1" d="m1291.46,101.64c4.36-.71,10.85-1.25,18.05-1.25,8.89,0,15.12,1.33,19.38,4.71,3.56,2.84,5.51,7.02,5.51,12.54,0,7.65-5.42,12.89-10.58,14.76v.27c4.18,1.69,6.49,5.69,8,11.2,1.87,6.76,3.73,14.58,4.89,16.89h-13.87c-.98-1.69-2.4-6.58-4.18-13.96-1.6-7.47-4.18-9.51-9.69-9.6h-4.09v23.56h-13.43v-59.13Zm13.43,25.78h5.33c6.76,0,10.76-3.38,10.76-8.62,0-5.51-3.73-8.27-9.96-8.36-3.29,0-5.16.27-6.13.45v16.54Z"/>
    <path class="cls-1" d="m1344.63,146.81c3.65,1.87,9.25,3.73,15.03,3.73,6.22,0,9.51-2.58,9.51-6.49s-2.84-5.87-10.05-8.45c-9.96-3.47-16.45-8.98-16.45-17.69,0-10.22,8.54-18.05,22.67-18.05,6.76,0,11.74,1.42,15.29,3.02l-3.02,10.94c-2.4-1.16-6.67-2.84-12.54-2.84s-8.71,2.67-8.71,5.78c0,3.82,3.38,5.51,11.11,8.45,10.58,3.91,15.56,9.42,15.56,17.87,0,10.05-7.74,18.58-24.18,18.58-6.85,0-13.6-1.78-16.98-3.64l2.76-11.2Z"/>
  </g>
</svg>